<svg xmlns="http://www.w3.org/2000/svg" viewBox="0 0 263.70519 929.78811"><defs><style>.cls-1{fill:#fff;}.cls-2{fill:#b22234;}.cls-3{fill:#3c3b6e;}</style></defs><title>Asset 1asdfasd1</title><g id="Layer_2" data-name="Layer 2"><g id="Layer_1-2" data-name="Layer 1"><rect class="cls-1" x="7.19885" y="5.30442" width="250.44418" height="924.10478"/><rect id="stripe" class="cls-2" x="225.81651" width="37.50977" height="929.78811"/><rect id="stripe-2" class="cls-2" x="150.41807" width="37.5098" height="929.78811"/><rect id="stripe-3" class="cls-2" x="75.39847" width="37.5098" height="929.78811"/><rect id="stripe-4" class="cls-2" width="37.5098" height="929.78811"/><rect class="cls-3" width="263.70519" height="372.0668"/><g id="star"><polygon id="pt" class="cls-1" points="234.531 35.994 225.059 23.112 240.214 28.038 234.531 35.994"/><polygon id="pt-2" class="cls-1" points="232.636 30.311 242.109 17.429 242.109 33.342 232.636 30.311"/><polygon id="pt-3" class="cls-1" points="237.562 26.901 252.339 31.826 237.562 36.752 237.562 26.901"/><polygon id="pt-4" class="cls-1" points="242.109 30.311 242.109 46.224 232.636 33.342 242.109 30.311"/><polygon id="pt-5" class="cls-1" points="240.214 35.994 225.059 40.92 234.531 28.038 240.214 35.994"/></g><g id="star-2"><polygon id="pt-6" class="cls-1" points="234.531 97.374 225.059 84.871 240.214 89.417 234.531 97.374"/><polygon id="pt-7" class="cls-1" points="232.636 92.069 242.109 79.187 242.109 95.101 232.636 92.069"/><polygon id="pt-8" class="cls-1" points="237.562 88.66 252.339 93.585 237.562 98.511 237.562 88.66"/><polygon id="pt-9" class="cls-1" points="242.109 92.069 242.109 107.983 232.636 95.101 242.109 92.069"/><polygon id="pt-10" class="cls-1" points="240.214 97.374 225.059 102.299 234.531 89.417 240.214 97.374"/></g><g id="star-3"><polygon id="pt-11" class="cls-1" points="234.531 159.132 225.059 146.25 240.214 151.176 234.531 159.132"/><polygon id="pt-12" class="cls-1" points="232.636 153.828 242.109 140.946 242.109 156.859 232.636 153.828"/><polygon id="pt-13" class="cls-1" points="237.562 150.418 252.339 155.344 237.562 160.269 237.562 150.418"/><polygon id="pt-14" class="cls-1" points="242.109 153.828 242.109 169.741 232.636 156.859 242.109 153.828"/><polygon id="pt-15" class="cls-1" points="240.214 159.132 225.059 164.058 234.531 151.176 240.214 159.132"/></g><g id="star-4"><polygon id="pt-16" class="cls-1" points="234.531 220.891 225.059 208.009 240.214 212.934 234.531 220.891"/><polygon id="pt-17" class="cls-1" points="232.636 215.208 242.109 202.704 242.109 218.239 232.636 215.208"/><polygon id="pt-18" class="cls-1" points="237.562 212.177 252.339 216.723 237.562 221.649 237.562 212.177"/><polygon id="pt-19" class="cls-1" points="242.109 215.208 242.109 231.121 232.636 218.239 242.109 215.208"/><polygon id="pt-20" class="cls-1" points="240.214 220.891 225.059 225.817 234.531 212.934 240.214 220.891"/></g><g id="s5"><g id="star-5"><polygon id="pt-21" class="cls-1" points="234.531 282.65 225.059 269.767 240.214 274.693 234.531 282.65"/><polygon id="pt-22" class="cls-1" points="232.636 276.966 242.109 264.084 242.109 279.997 232.636 276.966"/><polygon id="pt-23" class="cls-1" points="237.562 273.556 252.339 278.482 237.562 283.407 237.562 273.556"/><polygon id="pt-24" class="cls-1" points="242.109 276.966 242.109 292.879 232.636 279.997 242.109 276.966"/><polygon id="pt-25" class="cls-1" points="240.214 282.65 225.059 287.575 234.531 274.693 240.214 282.65"/></g></g><g id="s6"><g id="star-6"><polygon id="pt-26" class="cls-1" points="234.531 344.029 225.059 331.526 240.214 336.073 234.531 344.029"/><polygon id="pt-27" class="cls-1" points="232.636 338.725 242.109 325.843 242.109 341.756 232.636 338.725"/><polygon id="pt-28" class="cls-1" points="237.562 335.315 252.339 340.24 237.562 345.166 237.562 335.315"/><polygon id="pt-29" class="cls-1" points="242.109 338.725 242.109 354.638 232.636 341.756 242.109 338.725"/><polygon id="pt-30" class="cls-1" points="240.214 344.029 225.059 348.955 234.531 336.073 240.214 344.029"/></g></g><g id="star-7"><polygon id="pt-31" class="cls-1" points="208.009 66.684 198.916 53.802 213.692 58.727 208.009 66.684"/><polygon id="pt-32" class="cls-1" points="206.493 61.38 215.587 48.498 215.587 64.411 206.493 61.38"/><polygon id="pt-33" class="cls-1" points="211.04 57.97 226.195 62.895 211.04 67.442 211.04 57.97"/><polygon id="pt-34" class="cls-1" points="215.587 61.38 215.587 76.914 206.493 64.411 215.587 61.38"/><polygon id="pt-35" class="cls-1" points="213.692 66.684 198.916 71.61 208.009 58.727 213.692 66.684"/></g><g id="star-8"><polygon id="pt-36" class="cls-1" points="208.009 128.443 198.916 115.56 213.692 120.486 208.009 128.443"/><polygon id="pt-37" class="cls-1" points="206.493 122.759 215.587 109.877 215.587 125.79 206.493 122.759"/><polygon id="pt-38" class="cls-1" points="211.04 119.349 226.195 124.275 211.04 129.2 211.04 119.349"/><polygon id="pt-39" class="cls-1" points="215.587 122.759 215.587 138.673 206.493 125.79 215.587 122.759"/><polygon id="pt-40" class="cls-1" points="213.692 128.443 198.916 133.368 208.009 120.486 213.692 128.443"/></g><g id="star-9"><polygon id="pt-41" class="cls-1" points="208.009 190.201 198.916 177.319 213.692 182.245 208.009 190.201"/><polygon id="pt-42" class="cls-1" points="206.493 184.518 215.587 171.636 215.587 187.549 206.493 184.518"/><polygon id="pt-43" class="cls-1" points="211.04 181.108 226.195 186.033 211.04 190.959 211.04 181.108"/><polygon id="pt-44" class="cls-1" points="215.587 184.518 215.587 200.431 206.493 187.549 215.587 184.518"/><polygon id="pt-45" class="cls-1" points="213.692 190.201 198.916 194.748 208.009 182.245 213.692 190.201"/></g><g id="star-10"><polygon id="pt-46" class="cls-1" points="208.009 251.581 198.916 238.699 213.692 243.624 208.009 251.581"/><polygon id="pt-47" class="cls-1" points="206.493 246.276 215.587 233.394 215.587 249.308 206.493 246.276"/><polygon id="pt-48" class="cls-1" points="211.04 242.866 226.195 247.792 211.04 252.717 211.04 242.866"/><polygon id="pt-49" class="cls-1" points="215.587 246.276 215.587 262.19 206.493 249.308 215.587 246.276"/><polygon id="pt-50" class="cls-1" points="213.692 251.581 198.916 256.506 208.009 243.624 213.692 251.581"/></g><g id="s5-2"><g id="star-11"><polygon id="pt-51" class="cls-1" points="208.009 313.339 198.916 300.457 213.692 305.383 208.009 313.339"/><polygon id="pt-52" class="cls-1" points="206.493 308.035 215.587 295.153 215.587 311.066 206.493 308.035"/><polygon id="pt-53" class="cls-1" points="211.04 304.625 226.195 309.55 211.04 314.097 211.04 304.625"/><polygon id="pt-54" class="cls-1" points="215.587 308.035 215.587 323.569 206.493 311.066 215.587 308.035"/><polygon id="pt-55" class="cls-1" points="213.692 313.339 198.916 318.265 208.009 305.383 213.692 313.339"/></g></g><g id="star-12"><polygon id="pt-56" class="cls-1" points="181.487 35.994 172.393 23.112 187.549 28.038 181.487 35.994"/><polygon id="pt-57" class="cls-1" points="179.971 30.311 189.065 17.429 189.065 33.342 179.971 30.311"/><polygon id="pt-58" class="cls-1" points="184.518 26.901 199.673 31.826 184.518 36.752 184.518 26.901"/><polygon id="pt-59" class="cls-1" points="189.065 30.311 189.065 46.224 179.971 33.342 189.065 30.311"/><polygon id="pt-60" class="cls-1" points="187.549 35.994 172.393 40.92 181.487 28.038 187.549 35.994"/></g><g id="star-13"><polygon id="pt-61" class="cls-1" points="181.487 97.374 172.393 84.871 187.549 89.417 181.487 97.374"/><polygon id="pt-62" class="cls-1" points="179.971 92.069 189.065 79.187 189.065 95.101 179.971 92.069"/><polygon id="pt-63" class="cls-1" points="184.518 88.66 199.673 93.585 184.518 98.511 184.518 88.66"/><polygon id="pt-64" class="cls-1" points="189.065 92.069 189.065 107.983 179.971 95.101 189.065 92.069"/><polygon id="pt-65" class="cls-1" points="187.549 97.374 172.393 102.299 181.487 89.417 187.549 97.374"/></g><g id="star-14"><polygon id="pt-66" class="cls-1" points="181.487 159.132 172.393 146.25 187.549 151.176 181.487 159.132"/><polygon id="pt-67" class="cls-1" points="179.971 153.828 189.065 140.946 189.065 156.859 179.971 153.828"/><polygon id="pt-68" class="cls-1" points="184.518 150.418 199.673 155.344 184.518 160.269 184.518 150.418"/><polygon id="pt-69" class="cls-1" points="189.065 153.828 189.065 169.741 179.971 156.859 189.065 153.828"/><polygon id="pt-70" class="cls-1" points="187.549 159.132 172.393 164.058 181.487 151.176 187.549 159.132"/></g><g id="star-15"><polygon id="pt-71" class="cls-1" points="181.487 220.891 172.393 208.009 187.549 212.934 181.487 220.891"/><polygon id="pt-72" class="cls-1" points="179.971 215.208 189.065 202.704 189.065 218.239 179.971 215.208"/><polygon id="pt-73" class="cls-1" points="184.518 212.177 199.673 216.723 184.518 221.649 184.518 212.177"/><polygon id="pt-74" class="cls-1" points="189.065 215.208 189.065 231.121 179.971 218.239 189.065 215.208"/><polygon id="pt-75" class="cls-1" points="187.549 220.891 172.393 225.817 181.487 212.934 187.549 220.891"/></g><g id="s5-3"><g id="star-16"><polygon id="pt-76" class="cls-1" points="181.487 282.65 172.393 269.767 187.549 274.693 181.487 282.65"/><polygon id="pt-77" class="cls-1" points="179.971 276.966 189.065 264.084 189.065 279.997 179.971 276.966"/><polygon id="pt-78" class="cls-1" points="184.518 273.556 199.673 278.482 184.518 283.407 184.518 273.556"/><polygon id="pt-79" class="cls-1" points="189.065 276.966 189.065 292.879 179.971 279.997 189.065 276.966"/><polygon id="pt-80" class="cls-1" points="187.549 282.65 172.393 287.575 181.487 274.693 187.549 282.65"/></g></g><g id="s6-2"><g id="star-17"><polygon id="pt-81" class="cls-1" points="181.487 344.029 172.393 331.526 187.549 336.073 181.487 344.029"/><polygon id="pt-82" class="cls-1" points="179.971 338.725 189.065 325.843 189.065 341.756 179.971 338.725"/><polygon id="pt-83" class="cls-1" points="184.518 335.315 199.673 340.24 184.518 345.166 184.518 335.315"/><polygon id="pt-84" class="cls-1" points="189.065 338.725 189.065 354.638 179.971 341.756 189.065 338.725"/><polygon id="pt-85" class="cls-1" points="187.549 344.029 172.393 348.955 181.487 336.073 187.549 344.029"/></g></g><g id="star-23"><polygon id="pt-86" class="cls-1" points="181.487 35.994 172.393 23.112 187.17 28.038 181.487 35.994"/><polygon id="pt-87" class="cls-1" points="179.971 30.311 189.065 17.429 189.065 33.342 179.971 30.311"/><polygon id="pt-88" class="cls-1" points="184.518 26.901 199.673 31.826 184.518 36.752 184.518 26.901"/><polygon id="pt-89" class="cls-1" points="189.065 30.311 189.065 46.224 179.971 33.342 189.065 30.311"/><polygon id="pt-90" class="cls-1" points="187.17 35.994 172.393 40.92 181.487 28.038 187.17 35.994"/></g><g id="star-24"><polygon id="pt-91" class="cls-1" points="181.487 97.374 172.393 84.871 187.17 89.417 181.487 97.374"/><polygon id="pt-92" class="cls-1" points="179.971 92.069 189.065 79.187 189.065 95.101 179.971 92.069"/><polygon id="pt-93" class="cls-1" points="184.518 88.66 199.673 93.585 184.518 98.511 184.518 88.66"/><polygon id="pt-94" class="cls-1" points="189.065 92.069 189.065 107.983 179.971 95.101 189.065 92.069"/><polygon id="pt-95" class="cls-1" points="187.17 97.374 172.393 102.299 181.487 89.417 187.17 97.374"/></g><g id="star-25"><polygon id="pt-96" class="cls-1" points="181.487 159.132 172.393 146.25 187.17 151.176 181.487 159.132"/><polygon id="pt-97" class="cls-1" points="179.971 153.828 189.065 140.946 189.065 156.859 179.971 153.828"/><polygon id="pt-98" class="cls-1" points="184.518 150.418 199.673 155.344 184.518 160.269 184.518 150.418"/><polygon id="pt-99" class="cls-1" points="189.065 153.828 189.065 169.741 179.971 156.859 189.065 153.828"/><polygon id="pt-100" class="cls-1" points="187.17 159.132 172.393 164.058 181.487 151.176 187.17 159.132"/></g><g id="star-26"><polygon id="pt-101" class="cls-1" points="181.487 220.891 172.393 208.009 187.17 212.934 181.487 220.891"/><polygon id="pt-102" class="cls-1" points="179.971 215.208 189.065 202.704 189.065 218.239 179.971 215.208"/><polygon id="pt-103" class="cls-1" points="184.518 212.177 199.673 216.723 184.518 221.649 184.518 212.177"/><polygon id="pt-104" class="cls-1" points="189.065 215.208 189.065 231.121 179.971 218.239 189.065 215.208"/><polygon id="pt-105" class="cls-1" points="187.17 220.891 172.393 225.817 181.487 212.934 187.17 220.891"/></g><g id="s5-6"><g id="star-27"><polygon id="pt-106" class="cls-1" points="181.487 282.65 172.393 269.767 187.17 274.693 181.487 282.65"/><polygon id="pt-107" class="cls-1" points="179.971 276.966 189.065 264.084 189.065 279.997 179.971 276.966"/><polygon id="pt-108" class="cls-1" points="184.518 273.556 199.673 278.482 184.518 283.407 184.518 273.556"/><polygon id="pt-109" class="cls-1" points="189.065 276.966 189.065 292.879 179.971 279.997 189.065 276.966"/><polygon id="pt-110" class="cls-1" points="187.17 282.65 172.393 287.575 181.487 274.693 187.17 282.65"/></g></g><g id="s6-6"><g id="star-28"><polygon id="pt-111" class="cls-1" points="181.487 344.029 172.393 331.526 187.17 336.073 181.487 344.029"/><polygon id="pt-112" class="cls-1" points="179.971 338.725 189.065 325.843 189.065 341.756 179.971 338.725"/><polygon id="pt-113" class="cls-1" points="184.518 335.315 199.673 340.24 184.518 345.166 184.518 335.315"/><polygon id="pt-114" class="cls-1" points="189.065 338.725 189.065 354.638 179.971 341.756 189.065 338.725"/><polygon id="pt-115" class="cls-1" points="187.17 344.029 172.393 348.955 181.487 336.073 187.17 344.029"/></g></g><g id="star-29"><polygon id="pt-116" class="cls-1" points="154.965 66.684 145.871 53.802 161.027 58.727 154.965 66.684"/><polygon id="pt-117" class="cls-1" points="153.449 61.38 162.542 48.498 162.542 64.411 153.449 61.38"/><polygon id="pt-118" class="cls-1" points="157.996 57.97 173.151 62.895 157.996 67.442 157.996 57.97"/><polygon id="pt-119" class="cls-1" points="162.542 61.38 162.542 76.914 153.449 64.411 162.542 61.38"/><polygon id="pt-120" class="cls-1" points="161.027 66.684 145.871 71.61 154.965 58.727 161.027 66.684"/></g><g id="star-30"><polygon id="pt-121" class="cls-1" points="154.965 128.443 145.871 115.56 161.027 120.486 154.965 128.443"/><polygon id="pt-122" class="cls-1" points="153.449 122.759 162.542 109.877 162.542 125.79 153.449 122.759"/><polygon id="pt-123" class="cls-1" points="157.996 119.349 173.151 124.275 157.996 129.2 157.996 119.349"/><polygon id="pt-124" class="cls-1" points="162.542 122.759 162.542 138.673 153.449 125.79 162.542 122.759"/><polygon id="pt-125" class="cls-1" points="161.027 128.443 145.871 133.368 154.965 120.486 161.027 128.443"/></g><g id="star-31"><polygon id="pt-126" class="cls-1" points="154.965 190.201 145.871 177.319 161.027 182.245 154.965 190.201"/><polygon id="pt-127" class="cls-1" points="153.449 184.518 162.542 171.636 162.542 187.549 153.449 184.518"/><polygon id="pt-128" class="cls-1" points="157.996 181.108 173.151 186.033 157.996 190.959 157.996 181.108"/><polygon id="pt-129" class="cls-1" points="162.542 184.518 162.542 200.431 153.449 187.549 162.542 184.518"/><polygon id="pt-130" class="cls-1" points="161.027 190.201 145.871 194.748 154.965 182.245 161.027 190.201"/></g><g id="star-32"><polygon id="pt-131" class="cls-1" points="154.965 251.581 145.871 238.699 161.027 243.624 154.965 251.581"/><polygon id="pt-132" class="cls-1" points="153.449 246.276 162.542 233.394 162.542 249.308 153.449 246.276"/><polygon id="pt-133" class="cls-1" points="157.996 242.866 173.151 247.792 157.996 252.717 157.996 242.866"/><polygon id="pt-134" class="cls-1" points="162.542 246.276 162.542 262.19 153.449 249.308 162.542 246.276"/><polygon id="pt-135" class="cls-1" points="161.027 251.581 145.871 256.506 154.965 243.624 161.027 251.581"/></g><g id="s5-7"><g id="star-33"><polygon id="pt-136" class="cls-1" points="154.965 313.339 145.871 300.457 161.027 305.383 154.965 313.339"/><polygon id="pt-137" class="cls-1" points="153.449 308.035 162.542 295.153 162.542 311.066 153.449 308.035"/><polygon id="pt-138" class="cls-1" points="157.996 304.625 173.151 309.55 157.996 314.097 157.996 304.625"/><polygon id="pt-139" class="cls-1" points="162.542 308.035 162.542 323.569 153.449 311.066 162.542 308.035"/><polygon id="pt-140" class="cls-1" points="161.027 313.339 145.871 318.265 154.965 305.383 161.027 313.339"/></g></g><g id="star-34"><polygon id="pt-141" class="cls-1" points="128.822 35.994 119.349 23.112 134.505 28.038 128.822 35.994"/><polygon id="pt-142" class="cls-1" points="126.927 30.311 136.399 17.429 136.399 33.342 126.927 30.311"/><polygon id="pt-143" class="cls-1" points="131.474 26.901 146.629 31.826 131.474 36.752 131.474 26.901"/><polygon id="pt-144" class="cls-1" points="136.399 30.311 136.399 46.224 126.927 33.342 136.399 30.311"/><polygon id="pt-145" class="cls-1" points="134.505 35.994 119.349 40.92 128.822 28.038 134.505 35.994"/></g><g id="star-35"><polygon id="pt-146" class="cls-1" points="128.822 97.374 119.349 84.871 134.505 89.417 128.822 97.374"/><polygon id="pt-147" class="cls-1" points="126.927 92.069 136.399 79.187 136.399 95.101 126.927 92.069"/><polygon id="pt-148" class="cls-1" points="131.474 88.66 146.629 93.585 131.474 98.511 131.474 88.66"/><polygon id="pt-149" class="cls-1" points="136.399 92.069 136.399 107.983 126.927 95.101 136.399 92.069"/><polygon id="pt-150" class="cls-1" points="134.505 97.374 119.349 102.299 128.822 89.417 134.505 97.374"/></g><g id="star-36"><polygon id="pt-151" class="cls-1" points="128.822 159.132 119.349 146.25 134.505 151.176 128.822 159.132"/><polygon id="pt-152" class="cls-1" points="126.927 153.828 136.399 140.946 136.399 156.859 126.927 153.828"/><polygon id="pt-153" class="cls-1" points="131.474 150.418 146.629 155.344 131.474 160.269 131.474 150.418"/><polygon id="pt-154" class="cls-1" points="136.399 153.828 136.399 169.741 126.927 156.859 136.399 153.828"/><polygon id="pt-155" class="cls-1" points="134.505 159.132 119.349 164.058 128.822 151.176 134.505 159.132"/></g><g id="star-37"><polygon id="pt-156" class="cls-1" points="128.822 220.891 119.349 208.009 134.505 212.934 128.822 220.891"/><polygon id="pt-157" class="cls-1" points="126.927 215.208 136.399 202.704 136.399 218.239 126.927 215.208"/><polygon id="pt-158" class="cls-1" points="131.474 212.177 146.629 216.723 131.474 221.649 131.474 212.177"/><polygon id="pt-159" class="cls-1" points="136.399 215.208 136.399 231.121 126.927 218.239 136.399 215.208"/><polygon id="pt-160" class="cls-1" points="134.505 220.891 119.349 225.817 128.822 212.934 134.505 220.891"/></g><g id="s5-8"><g id="star-38"><polygon id="pt-161" class="cls-1" points="128.822 282.65 119.349 269.767 134.505 274.693 128.822 282.65"/><polygon id="pt-162" class="cls-1" points="126.927 276.966 136.399 264.084 136.399 279.997 126.927 276.966"/><polygon id="pt-163" class="cls-1" points="131.474 273.556 146.629 278.482 131.474 283.407 131.474 273.556"/><polygon id="pt-164" class="cls-1" points="136.399 276.966 136.399 292.879 126.927 279.997 136.399 276.966"/><polygon id="pt-165" class="cls-1" points="134.505 282.65 119.349 287.575 128.822 274.693 134.505 282.65"/></g></g><g id="s6-7"><g id="star-39"><polygon id="pt-166" class="cls-1" points="128.822 344.029 119.349 331.526 134.505 336.073 128.822 344.029"/><polygon id="pt-167" class="cls-1" points="126.927 338.725 136.399 325.843 136.399 341.756 126.927 338.725"/><polygon id="pt-168" class="cls-1" points="131.474 335.315 146.629 340.24 131.474 345.166 131.474 335.315"/><polygon id="pt-169" class="cls-1" points="136.399 338.725 136.399 354.638 126.927 341.756 136.399 338.725"/><polygon id="pt-170" class="cls-1" points="134.505 344.029 119.349 348.955 128.822 336.073 134.505 344.029"/></g></g><g id="star-45"><polygon id="pt-171" class="cls-1" points="128.822 35.615 119.728 22.733 134.505 27.659 128.822 35.615"/><polygon id="pt-172" class="cls-1" points="126.927 29.932 136.399 17.05 136.399 32.963 126.927 29.932"/><polygon id="pt-173" class="cls-1" points="131.853 26.522 146.629 31.448 131.853 36.373 131.853 26.522"/><polygon id="pt-174" class="cls-1" points="136.399 29.932 136.399 45.845 126.927 32.963 136.399 29.932"/><polygon id="pt-175" class="cls-1" points="134.505 35.615 119.728 40.541 128.822 27.659 134.505 35.615"/></g><g id="star-46"><polygon id="pt-176" class="cls-1" points="128.822 96.995 119.728 84.492 134.505 89.417 128.822 96.995"/><polygon id="pt-177" class="cls-1" points="126.927 91.691 136.399 78.808 136.399 94.722 126.927 91.691"/><polygon id="pt-178" class="cls-1" points="131.853 88.281 146.629 93.206 131.853 98.132 131.853 88.281"/><polygon id="pt-179" class="cls-1" points="136.399 91.691 136.399 107.604 126.927 94.722 136.399 91.691"/><polygon id="pt-180" class="cls-1" points="134.505 96.995 119.728 101.921 128.822 89.417 134.505 96.995"/></g><g id="star-47"><polygon id="pt-181" class="cls-1" points="128.822 158.754 119.728 145.871 134.505 150.797 128.822 158.754"/><polygon id="pt-182" class="cls-1" points="126.927 153.449 136.399 140.567 136.399 156.48 126.927 153.449"/><polygon id="pt-183" class="cls-1" points="131.853 150.039 146.629 154.965 131.853 159.89 131.853 150.039"/><polygon id="pt-184" class="cls-1" points="136.399 153.449 136.399 169.362 126.927 156.48 136.399 153.449"/><polygon id="pt-185" class="cls-1" points="134.505 158.754 119.728 163.679 128.822 150.797 134.505 158.754"/></g><g id="star-48"><polygon id="pt-186" class="cls-1" points="128.822 220.512 119.728 207.63 134.505 212.555 128.822 220.512"/><polygon id="pt-187" class="cls-1" points="126.927 214.829 136.399 202.326 136.399 217.86 126.927 214.829"/><polygon id="pt-188" class="cls-1" points="131.853 211.798 146.629 216.344 131.853 221.27 131.853 211.798"/><polygon id="pt-189" class="cls-1" points="136.399 214.829 136.399 230.742 126.927 217.86 136.399 214.829"/><polygon id="pt-190" class="cls-1" points="134.505 220.512 119.728 225.438 128.822 212.555 134.505 220.512"/></g><g id="s5-11"><g id="star-49"><polygon id="pt-191" class="cls-1" points="128.822 282.271 119.728 269.388 134.505 274.314 128.822 282.271"/><polygon id="pt-192" class="cls-1" points="126.927 276.587 136.399 263.705 136.399 279.618 126.927 276.587"/><polygon id="pt-193" class="cls-1" points="131.853 273.177 146.629 278.103 131.853 283.028 131.853 273.177"/><polygon id="pt-194" class="cls-1" points="136.399 276.587 136.399 292.501 126.927 279.618 136.399 276.587"/><polygon id="pt-195" class="cls-1" points="134.505 282.271 119.728 287.196 128.822 274.314 134.505 282.271"/></g></g><g id="s6-11"><g id="star-50"><polygon id="pt-196" class="cls-1" points="128.822 343.65 119.728 331.147 134.505 335.694 128.822 343.65"/><polygon id="pt-197" class="cls-1" points="126.927 338.346 136.399 325.464 136.399 341.377 126.927 338.346"/><polygon id="pt-198" class="cls-1" points="131.853 334.936 146.629 339.861 131.853 344.787 131.853 334.936"/><polygon id="pt-199" class="cls-1" points="136.399 338.346 136.399 354.259 126.927 341.377 136.399 338.346"/><polygon id="pt-200" class="cls-1" points="134.505 343.65 119.728 348.576 128.822 335.694 134.505 343.65"/></g></g><g id="star-51"><polygon id="pt-201" class="cls-1" points="102.299 66.305 93.206 53.423 108.362 58.349 102.299 66.305"/><polygon id="pt-202" class="cls-1" points="100.784 61.001 109.877 48.119 109.877 64.032 100.784 61.001"/><polygon id="pt-203" class="cls-1" points="105.331 57.591 120.486 62.516 105.331 67.442 105.331 57.591"/><polygon id="pt-204" class="cls-1" points="109.877 61.001 109.877 76.535 100.784 64.032 109.877 61.001"/><polygon id="pt-205" class="cls-1" points="108.362 66.305 93.206 71.231 102.299 58.349 108.362 66.305"/></g><g id="star-52"><polygon id="pt-206" class="cls-1" points="102.299 128.064 93.206 115.182 108.362 120.107 102.299 128.064"/><polygon id="pt-207" class="cls-1" points="100.784 122.38 109.877 109.877 109.877 125.412 100.784 122.38"/><polygon id="pt-208" class="cls-1" points="105.331 118.97 120.486 123.896 105.331 128.822 105.331 118.97"/><polygon id="pt-209" class="cls-1" points="109.877 122.38 109.877 138.294 100.784 125.412 109.877 122.38"/><polygon id="pt-210" class="cls-1" points="108.362 128.064 93.206 132.989 102.299 120.107 108.362 128.064"/></g><g id="star-53"><polygon id="pt-211" class="cls-1" points="102.299 189.822 93.206 176.94 108.362 181.866 102.299 189.822"/><polygon id="pt-212" class="cls-1" points="100.784 184.139 109.877 171.257 109.877 187.17 100.784 184.139"/><polygon id="pt-213" class="cls-1" points="105.331 180.729 120.486 185.655 105.331 190.58 105.331 180.729"/><polygon id="pt-214" class="cls-1" points="109.877 184.139 109.877 200.052 100.784 187.17 109.877 184.139"/><polygon id="pt-215" class="cls-1" points="108.362 189.822 93.206 194.369 102.299 181.866 108.362 189.822"/></g><g id="star-54"><polygon id="pt-216" class="cls-1" points="102.299 251.202 93.206 238.32 108.362 243.245 102.299 251.202"/><polygon id="pt-217" class="cls-1" points="100.784 245.898 109.877 233.015 109.877 248.929 100.784 245.898"/><polygon id="pt-218" class="cls-1" points="105.331 242.488 120.486 247.413 105.331 252.339 105.331 242.488"/><polygon id="pt-219" class="cls-1" points="109.877 245.898 109.877 261.811 100.784 248.929 109.877 245.898"/><polygon id="pt-220" class="cls-1" points="108.362 251.202 93.206 256.127 102.299 243.245 108.362 251.202"/></g><g id="s5-12"><g id="star-55"><polygon id="pt-221" class="cls-1" points="102.299 312.96 93.206 300.078 108.362 305.004 102.299 312.96"/><polygon id="pt-222" class="cls-1" points="100.784 307.656 109.877 294.774 109.877 310.687 100.784 307.656"/><polygon id="pt-223" class="cls-1" points="105.331 304.246 120.486 309.172 105.331 314.097 105.331 304.246"/><polygon id="pt-224" class="cls-1" points="109.877 307.656 109.877 323.19 100.784 310.687 109.877 307.656"/><polygon id="pt-225" class="cls-1" points="108.362 312.96 93.206 317.886 102.299 305.004 108.362 312.96"/></g></g><g id="star-56"><polygon id="pt-226" class="cls-1" points="76.156 35.615 66.684 22.733 81.84 27.659 76.156 35.615"/><polygon id="pt-227" class="cls-1" points="74.262 29.932 83.355 17.05 83.355 32.963 74.262 29.932"/><polygon id="pt-228" class="cls-1" points="78.808 26.522 93.964 31.448 78.808 36.373 78.808 26.522"/><polygon id="pt-229" class="cls-1" points="83.355 29.932 83.355 45.845 74.262 32.963 83.355 29.932"/><polygon id="pt-230" class="cls-1" points="81.84 35.615 66.684 40.541 76.156 27.659 81.84 35.615"/></g><g id="star-57"><polygon id="pt-231" class="cls-1" points="76.156 96.995 66.684 84.492 81.84 89.417 76.156 96.995"/><polygon id="pt-232" class="cls-1" points="74.262 91.691 83.355 78.808 83.355 94.722 74.262 91.691"/><polygon id="pt-233" class="cls-1" points="78.808 88.281 93.964 93.206 78.808 98.132 78.808 88.281"/><polygon id="pt-234" class="cls-1" points="83.355 91.691 83.355 107.604 74.262 94.722 83.355 91.691"/><polygon id="pt-235" class="cls-1" points="81.84 96.995 66.684 101.921 76.156 89.417 81.84 96.995"/></g><g id="star-58"><polygon id="pt-236" class="cls-1" points="76.156 158.754 66.684 145.871 81.84 150.797 76.156 158.754"/><polygon id="pt-237" class="cls-1" points="74.262 153.449 83.355 140.567 83.355 156.48 74.262 153.449"/><polygon id="pt-238" class="cls-1" points="78.808 150.039 93.964 154.965 78.808 159.89 78.808 150.039"/><polygon id="pt-239" class="cls-1" points="83.355 153.449 83.355 169.362 74.262 156.48 83.355 153.449"/><polygon id="pt-240" class="cls-1" points="81.84 158.754 66.684 163.679 76.156 150.797 81.84 158.754"/></g><g id="star-59"><polygon id="pt-241" class="cls-1" points="76.156 220.512 66.684 207.63 81.84 212.555 76.156 220.512"/><polygon id="pt-242" class="cls-1" points="74.262 214.829 83.355 202.326 83.355 217.86 74.262 214.829"/><polygon id="pt-243" class="cls-1" points="78.808 211.798 93.964 216.344 78.808 221.27 78.808 211.798"/><polygon id="pt-244" class="cls-1" points="83.355 214.829 83.355 230.742 74.262 217.86 83.355 214.829"/><polygon id="pt-245" class="cls-1" points="81.84 220.512 66.684 225.438 76.156 212.555 81.84 220.512"/></g><g id="s5-13"><g id="star-60"><polygon id="pt-246" class="cls-1" points="76.156 282.271 66.684 269.388 81.84 274.314 76.156 282.271"/><polygon id="pt-247" class="cls-1" points="74.262 276.587 83.355 263.705 83.355 279.618 74.262 276.587"/><polygon id="pt-248" class="cls-1" points="78.808 273.177 93.964 278.103 78.808 283.028 78.808 273.177"/><polygon id="pt-249" class="cls-1" points="83.355 276.587 83.355 292.501 74.262 279.618 83.355 276.587"/><polygon id="pt-250" class="cls-1" points="81.84 282.271 66.684 287.196 76.156 274.314 81.84 282.271"/></g></g><g id="s6-12"><g id="star-61"><polygon id="pt-251" class="cls-1" points="76.156 343.65 66.684 331.147 81.84 335.694 76.156 343.65"/><polygon id="pt-252" class="cls-1" points="74.262 338.346 83.355 325.464 83.355 341.377 74.262 338.346"/><polygon id="pt-253" class="cls-1" points="78.808 334.936 93.964 339.861 78.808 344.787 78.808 334.936"/><polygon id="pt-254" class="cls-1" points="83.355 338.346 83.355 354.259 74.262 341.377 83.355 338.346"/><polygon id="pt-255" class="cls-1" points="81.84 343.65 66.684 348.576 76.156 335.694 81.84 343.65"/></g></g><g id="star-67"><polygon id="pt-256" class="cls-1" points="76.156 35.615 66.684 22.733 81.84 27.659 76.156 35.615"/><polygon id="pt-257" class="cls-1" points="74.262 29.932 83.355 17.429 83.355 32.963 74.262 29.932"/><polygon id="pt-258" class="cls-1" points="78.808 26.522 93.964 31.448 78.808 36.373 78.808 26.522"/><polygon id="pt-259" class="cls-1" points="83.355 29.932 83.355 45.845 74.262 32.963 83.355 29.932"/><polygon id="pt-260" class="cls-1" points="81.84 35.615 66.684 40.541 76.156 27.659 81.84 35.615"/></g><g id="star-68"><polygon id="pt-261" class="cls-1" points="76.156 97.374 66.684 84.492 81.84 89.417 76.156 97.374"/><polygon id="pt-262" class="cls-1" points="74.262 91.691 83.355 78.808 83.355 94.722 74.262 91.691"/><polygon id="pt-263" class="cls-1" points="78.808 88.281 93.964 93.206 78.808 98.132 78.808 88.281"/><polygon id="pt-264" class="cls-1" points="83.355 91.691 83.355 107.604 74.262 94.722 83.355 91.691"/><polygon id="pt-265" class="cls-1" points="81.84 97.374 66.684 101.921 76.156 89.417 81.84 97.374"/></g><g id="star-69"><polygon id="pt-266" class="cls-1" points="76.156 158.754 66.684 145.871 81.84 150.797 76.156 158.754"/><polygon id="pt-267" class="cls-1" points="74.262 153.449 83.355 140.567 83.355 156.48 74.262 153.449"/><polygon id="pt-268" class="cls-1" points="78.808 150.039 93.964 154.965 78.808 159.89 78.808 150.039"/><polygon id="pt-269" class="cls-1" points="83.355 153.449 83.355 169.362 74.262 156.48 83.355 153.449"/><polygon id="pt-270" class="cls-1" points="81.84 158.754 66.684 163.679 76.156 150.797 81.84 158.754"/></g><g id="star-70"><polygon id="pt-271" class="cls-1" points="76.156 220.512 66.684 207.63 81.84 212.555 76.156 220.512"/><polygon id="pt-272" class="cls-1" points="74.262 215.208 83.355 202.326 83.355 218.239 74.262 215.208"/><polygon id="pt-273" class="cls-1" points="78.808 211.798 93.964 216.723 78.808 221.649 78.808 211.798"/><polygon id="pt-274" class="cls-1" points="83.355 215.208 83.355 230.742 74.262 218.239 83.355 215.208"/><polygon id="pt-275" class="cls-1" points="81.84 220.512 66.684 225.438 76.156 212.555 81.84 220.512"/></g><g id="s5-16"><g id="star-71"><polygon id="pt-276" class="cls-1" points="76.156 282.271 66.684 269.388 81.84 274.314 76.156 282.271"/><polygon id="pt-277" class="cls-1" points="74.262 276.587 83.355 264.084 83.355 279.618 74.262 276.587"/><polygon id="pt-278" class="cls-1" points="78.808 273.177 93.964 278.103 78.808 283.028 78.808 273.177"/><polygon id="pt-279" class="cls-1" points="83.355 276.587 83.355 292.501 74.262 279.618 83.355 276.587"/><polygon id="pt-280" class="cls-1" points="81.84 282.271 66.684 287.196 76.156 274.314 81.84 282.271"/></g></g><g id="s6-16"><g id="star-72"><polygon id="pt-281" class="cls-1" points="76.156 344.029 66.684 331.147 81.84 336.073 76.156 344.029"/><polygon id="pt-282" class="cls-1" points="74.262 338.346 83.355 325.464 83.355 341.377 74.262 338.346"/><polygon id="pt-283" class="cls-1" points="78.808 334.936 93.964 339.861 78.808 344.787 78.808 334.936"/><polygon id="pt-284" class="cls-1" points="83.355 338.346 83.355 354.259 74.262 341.377 83.355 338.346"/><polygon id="pt-285" class="cls-1" points="81.84 344.029 66.684 348.576 76.156 336.073 81.84 344.029"/></g></g><g id="star-73"><polygon id="pt-286" class="cls-1" points="49.634 66.305 40.162 53.423 55.317 58.349 49.634 66.305"/><polygon id="pt-287" class="cls-1" points="47.74 61.001 57.212 48.119 57.212 64.032 47.74 61.001"/><polygon id="pt-288" class="cls-1" points="52.286 57.591 67.442 62.516 52.286 67.442 52.286 57.591"/><polygon id="pt-289" class="cls-1" points="57.212 61.001 57.212 76.914 47.74 64.032 57.212 61.001"/><polygon id="pt-290" class="cls-1" points="55.317 66.305 40.162 71.231 49.634 58.349 55.317 66.305"/></g><g id="star-74"><polygon id="pt-291" class="cls-1" points="49.634 128.064 40.162 115.182 55.317 120.107 49.634 128.064"/><polygon id="pt-292" class="cls-1" points="47.74 122.38 57.212 109.877 57.212 125.412 47.74 122.38"/><polygon id="pt-293" class="cls-1" points="52.286 119.349 67.442 123.896 52.286 128.822 52.286 119.349"/><polygon id="pt-294" class="cls-1" points="57.212 122.38 57.212 138.294 47.74 125.412 57.212 122.38"/><polygon id="pt-295" class="cls-1" points="55.317 128.064 40.162 132.989 49.634 120.107 55.317 128.064"/></g><g id="star-75"><polygon id="pt-296" class="cls-1" points="49.634 189.822 40.162 176.94 55.317 181.866 49.634 189.822"/><polygon id="pt-297" class="cls-1" points="47.74 184.139 57.212 171.257 57.212 187.17 47.74 184.139"/><polygon id="pt-298" class="cls-1" points="52.286 180.729 67.442 185.655 52.286 190.58 52.286 180.729"/><polygon id="pt-299" class="cls-1" points="57.212 184.139 57.212 200.052 47.74 187.17 57.212 184.139"/><polygon id="pt-300" class="cls-1" points="55.317 189.822 40.162 194.748 49.634 181.866 55.317 189.822"/></g><g id="star-76"><polygon id="pt-301" class="cls-1" points="49.634 251.202 40.162 238.699 55.317 243.624 49.634 251.202"/><polygon id="pt-302" class="cls-1" points="47.74 245.898 57.212 233.015 57.212 248.929 47.74 245.898"/><polygon id="pt-303" class="cls-1" points="52.286 242.488 67.442 247.413 52.286 252.339 52.286 242.488"/><polygon id="pt-304" class="cls-1" points="57.212 245.898 57.212 261.811 47.74 248.929 57.212 245.898"/><polygon id="pt-305" class="cls-1" points="55.317 251.202 40.162 256.127 49.634 243.624 55.317 251.202"/></g><g id="s5-17"><g id="star-77"><polygon id="pt-306" class="cls-1" points="49.634 312.96 40.162 300.078 55.317 305.004 49.634 312.96"/><polygon id="pt-307" class="cls-1" points="47.74 307.656 57.212 294.774 57.212 310.687 47.74 307.656"/><polygon id="pt-308" class="cls-1" points="52.286 304.246 67.442 309.172 52.286 314.097 52.286 304.246"/><polygon id="pt-309" class="cls-1" points="57.212 307.656 57.212 323.569 47.74 310.687 57.212 307.656"/><polygon id="pt-310" class="cls-1" points="55.317 312.96 40.162 317.886 49.634 305.004 55.317 312.96"/></g></g><g id="star-78"><polygon id="pt-311" class="cls-1" points="23.112 35.615 13.64 22.733 28.795 27.659 23.112 35.615"/><polygon id="pt-312" class="cls-1" points="21.218 29.932 30.69 17.429 30.69 32.963 21.218 29.932"/><polygon id="pt-313" class="cls-1" points="26.143 26.522 40.92 31.448 26.143 36.373 26.143 26.522"/><polygon id="pt-314" class="cls-1" points="30.69 29.932 30.69 45.845 21.218 32.963 30.69 29.932"/><polygon id="pt-315" class="cls-1" points="28.795 35.615 13.64 40.541 23.112 27.659 28.795 35.615"/></g><g id="star-79"><polygon id="pt-316" class="cls-1" points="23.112 97.374 13.64 84.492 28.795 89.417 23.112 97.374"/><polygon id="pt-317" class="cls-1" points="21.218 91.691 30.69 78.808 30.69 94.722 21.218 91.691"/><polygon id="pt-318" class="cls-1" points="26.143 88.281 40.92 93.206 26.143 98.132 26.143 88.281"/><polygon id="pt-319" class="cls-1" points="30.69 91.691 30.69 107.604 21.218 94.722 30.69 91.691"/><polygon id="pt-320" class="cls-1" points="28.795 97.374 13.64 101.921 23.112 89.417 28.795 97.374"/></g><g id="star-80"><polygon id="pt-321" class="cls-1" points="23.112 158.754 13.64 145.871 28.795 150.797 23.112 158.754"/><polygon id="pt-322" class="cls-1" points="21.218 153.449 30.69 140.567 30.69 156.48 21.218 153.449"/><polygon id="pt-323" class="cls-1" points="26.143 150.039 40.92 154.965 26.143 159.89 26.143 150.039"/><polygon id="pt-324" class="cls-1" points="30.69 153.449 30.69 169.362 21.218 156.48 30.69 153.449"/><polygon id="pt-325" class="cls-1" points="28.795 158.754 13.64 163.679 23.112 150.797 28.795 158.754"/></g><g id="star-81"><polygon id="pt-326" class="cls-1" points="23.112 220.512 13.64 207.63 28.795 212.555 23.112 220.512"/><polygon id="pt-327" class="cls-1" points="21.218 215.208 30.69 202.326 30.69 218.239 21.218 215.208"/><polygon id="pt-328" class="cls-1" points="26.143 211.798 40.92 216.723 26.143 221.649 26.143 211.798"/><polygon id="pt-329" class="cls-1" points="30.69 215.208 30.69 230.742 21.218 218.239 30.69 215.208"/><polygon id="pt-330" class="cls-1" points="28.795 220.512 13.64 225.438 23.112 212.555 28.795 220.512"/></g><g id="s5-18"><g id="star-82"><polygon id="pt-331" class="cls-1" points="23.112 282.271 13.64 269.388 28.795 274.314 23.112 282.271"/><polygon id="pt-332" class="cls-1" points="21.218 276.587 30.69 264.084 30.69 279.618 21.218 276.587"/><polygon id="pt-333" class="cls-1" points="26.143 273.177 40.92 278.103 26.143 283.028 26.143 273.177"/><polygon id="pt-334" class="cls-1" points="30.69 276.587 30.69 292.501 21.218 279.618 30.69 276.587"/><polygon id="pt-335" class="cls-1" points="28.795 282.271 13.64 287.196 23.112 274.314 28.795 282.271"/></g></g><g id="s6-17"><g id="star-83"><polygon id="pt-336" class="cls-1" points="23.112 344.029 13.64 331.147 28.795 336.073 23.112 344.029"/><polygon id="pt-337" class="cls-1" points="21.218 338.346 30.69 325.464 30.69 341.377 21.218 338.346"/><polygon id="pt-338" class="cls-1" points="26.143 334.936 40.92 339.861 26.143 344.787 26.143 334.936"/><polygon id="pt-339" class="cls-1" points="30.69 338.346 30.69 354.259 21.218 341.377 30.69 338.346"/><polygon id="pt-340" class="cls-1" points="28.795 344.029 13.64 348.576 23.112 336.073 28.795 344.029"/></g></g></g></g></svg>