<?xml version="1.0" encoding="utf-8"?>
<!-- Generator: Adobe Illustrator 22.1.0, SVG Export Plug-In . SVG Version: 6.00 Build 0)  -->
<svg version="1.1" id="Layer_1" xmlns="http://www.w3.org/2000/svg" xmlns:xlink="http://www.w3.org/1999/xlink" x="0px" y="0px"
	 viewBox="0 0 700 100" style="enable-background:new 0 0 700 100;" xml:space="preserve">
<title>Artboard 1</title>
<path d="M41,35.3c-0.8,2.1-2.1,4-3.8,5.5c-1.7,1.6-3.7,2.8-5.9,3.6c-5,1.7-10.4,1.7-15.4,0c-2.2-0.8-4.1-2-5.8-3.6
	c-1.6-1.6-2.9-3.4-3.7-5.5c-0.9-2.3-1.3-4.7-1.3-7.1v-27h10.4v26.2c0,1.1,0.1,2.3,0.5,3.4c0.3,1,0.8,2,1.4,2.8
	c0.7,0.9,1.5,1.5,2.5,2c2.4,1,5.1,1,7.5,0c1-0.5,1.9-1.1,2.5-2c0.7-0.8,1.1-1.8,1.4-2.8c0.3-1.1,0.4-2.2,0.4-3.4V1.2h10.5v27
	C42.4,30.7,41.9,33.1,41,35.3z"/>
<path d="M50.8,44.6V1.2h10.5v34.3h16.8v9.1L50.8,44.6L50.8,44.6z"/>
<path d="M96.7,10.2v34.4H86.2V10.2H73.9V1.2h35v8.9H96.7z"/>
<path d="M137,44.6l-9.4-17.2H124v17.2h-10.2V1.2h16.5c2,0,4.1,0.2,6.1,0.6c1.9,0.4,3.7,1.1,5.3,2.2c1.6,1,2.9,2.4,3.8,4
	c1,1.9,1.5,4.1,1.4,6.2c0.1,2.7-0.8,5.3-2.4,7.4c-1.7,2.1-4,3.6-6.6,4.3l11.3,18.6H137z M136.6,14.5c0-0.9-0.2-1.7-0.6-2.5
	c-0.4-0.6-1-1.1-1.7-1.5s-1.5-0.6-2.3-0.7c-0.8-0.1-1.6-0.2-2.4-0.2H124v10.1h5c0.9,0,1.8-0.1,2.6-0.2c0.9-0.1,1.7-0.4,2.5-0.8
	C135.7,18,136.7,16.3,136.6,14.5z"/>
<path d="M183.8,44.6l-3.4-8.5h-16.8l-3.2,8.5H149l18.3-43.3h10.2l18,43.4L183.8,44.6L183.8,44.6z M172.2,12.8l-5.5,14.9h10.9
	L172.2,12.8z"/>
<path d="M28.5,65.7c-0.9-1.2-2.1-2.1-3.5-2.7c-1.3-0.6-2.7-1-4.2-1c-0.7,0-1.4,0.1-2.1,0.2c-0.7,0.1-1.3,0.3-1.9,0.7
	c-0.6,0.3-1.1,0.8-1.4,1.3c-0.4,0.6-0.6,1.4-0.6,2.1c0,0.6,0.1,1.3,0.5,1.8c0.3,0.5,0.8,1,1.3,1.3c0.7,0.4,1.4,0.7,2.1,1
	c0.8,0.3,1.7,0.6,2.8,0.9c1.5,0.5,3,1,4.6,1.6s3,1.4,4.4,2.4c1.3,1,2.4,2.2,3.2,3.6c0.9,1.7,1.4,3.5,1.3,5.4
	c0.1,2.2-0.4,4.4-1.4,6.5c-0.9,1.8-2.1,3.3-3.7,4.5c-1.6,1.2-3.4,2.1-5.3,2.6c-2,0.6-4.1,0.9-6.2,0.9c-3.1,0-6.1-0.5-9-1.6
	c-2.7-1-5.2-2.6-7.2-4.6l6.9-7c1.2,1.4,2.6,2.5,4.2,3.3c1.6,0.8,3.4,1.3,5.2,1.3c0.8,0,1.5-0.1,2.3-0.2c0.7-0.1,1.3-0.4,1.9-0.8
	c0.6-0.4,1-0.9,1.3-1.5c0.3-0.7,0.5-1.4,0.5-2.2c0-0.7-0.2-1.5-0.6-2.1c-0.5-0.6-1.1-1.2-1.7-1.6c-0.9-0.5-1.8-1-2.8-1.3
	c-1.1-0.4-2.4-0.8-3.8-1.3c-1.4-0.4-2.7-1-4.1-1.6c-1.3-0.6-2.5-1.4-3.6-2.4S6,72.9,5.4,71.6c-0.7-1.6-1-3.3-0.9-5
	c-0.1-2.2,0.4-4.3,1.5-6.2c1-1.7,2.3-3.1,3.9-4.2c1.6-1.1,3.5-1.9,5.4-2.4c2-0.5,4-0.8,6.1-0.8c2.6,0,5.1,0.5,7.5,1.3
	c2.5,0.9,4.8,2.2,6.7,4L28.5,65.7z"/>
<path d="M38.3,81.4l4.9-27.5h17.3l-0.7,4.2H47.1l-1.2,7.1H58l-0.7,4h-12l-1.4,7.9h13.7l-0.7,4.3H38.3z"/>
<path d="M67.2,81.4l4.9-27.5h4.8l-4.1,23.2h11.7l-0.7,4.3H67.2z"/>
<path d="M103.4,58.2l-4.1,23.3h-4.8l4.1-23.3h-8.1l0.7-4.2h21l-0.7,4.2C111.5,58.1,103.4,58.1,103.4,58.2z"/>
<path d="M113.6,81.4l0.7-4.3l18.1-19h-13l0.7-4.2h19.3l-0.8,4.3l-18,18.9h15.1l-0.8,4.3L113.6,81.4z"/>
<path d="M145.2,81.4l4.9-27.5h17.3l-0.7,4.2H154l-1.2,7.1h12.1l-0.7,4h-12l-1.4,7.9h13.7l-0.7,4.3H145.2z"/>
<path d="M195.1,81.4h-5.4l-5.2-11.7h-3.6l-2,11.7h-4.7l4.9-27.5h8.1c3,0,5.4,0.6,7,1.9c1.6,1.2,2.6,3.2,2.5,5.2c0.1,2-0.6,3.9-2,5.3
	s-3.3,2.4-5.3,2.8L195.1,81.4z M185.1,65.8c1.7,0.1,3.3-0.3,4.9-1c1.1-0.7,1.8-1.9,1.7-3.2c0.1-1.1-0.4-2.2-1.4-2.8
	c-1.2-0.6-2.5-0.8-3.8-0.8H183l-1.4,7.8H185.1z"/>
<path d="M224.7,81.7c-0.6,0-1.2-0.1-1.8-0.3c-0.5-0.2-1-0.5-1.4-0.8c-0.8-0.7-1.3-1.8-1.3-2.9c0-0.7,0.1-1.5,0.4-2.2
	s0.6-1.3,1.1-1.8c1.1-1.1,2.6-1.8,4.1-1.8c0.6,0,1.2,0.1,1.8,0.3c0.5,0.2,1,0.5,1.4,0.8c0.4,0.4,0.7,0.8,0.9,1.3
	c0.2,0.5,0.3,1.1,0.3,1.6c0,0.8-0.1,1.5-0.4,2.2s-0.6,1.3-1.1,1.9c-0.5,0.5-1.1,1-1.8,1.3C226.3,81.6,225.5,81.7,224.7,81.7z
	 M228.1,76.2c0-0.6-0.2-1.3-0.6-1.7c-0.5-0.5-1.1-0.7-1.8-0.7c-0.5,0-0.9,0.1-1.3,0.3c-0.4,0.2-0.7,0.5-1,0.8s-0.5,0.7-0.7,1.2
	s-0.2,0.9-0.2,1.4c0,0.6,0.2,1.3,0.6,1.7c0.5,0.5,1.1,0.7,1.8,0.7c0.9,0,1.8-0.4,2.4-1.1c0.3-0.4,0.5-0.8,0.7-1.2
	C228,77.1,228.1,76.6,228.1,76.2z"/>
<path d="M242.1,68.6c-0.1,0-0.2-0.1-0.4-0.1c-0.1,0-0.3,0-0.4,0c-0.3,0-0.6,0.1-0.8,0.2c-0.2,0.1-0.4,0.3-0.5,0.5s-0.3,0.4-0.3,0.7
	c-0.1,0.2-0.1,0.5-0.2,0.7l-0.3,1.5h2.2l-0.3,1.8h-2.2l-1.3,7.5h-2.2l1.3-7.5h-1.8l0.3-1.8h1.7l0.3-1.4c0.1-0.5,0.2-1,0.4-1.5
	c0.2-0.5,0.4-0.9,0.8-1.3c0.3-0.4,0.8-0.7,1.2-1c0.6-0.3,1.2-0.4,1.8-0.4c0.4,0,0.8,0,1.2,0.1L242.1,68.6z"/>
<path d="M261.8,81.4l-0.6-3.2h-5.9l-2,3.2h-2.8l9-13.8h2.1l2.7,13.8H261.8z M260,70.3l-3.5,5.8h4.4L260,70.3z"/>
<path d="M270.3,73.2c0.1-0.4,0.1-0.7,0.1-1.1h2.1c0,0.1,0,0.4-0.1,0.7c0,0.3-0.1,0.6-0.1,0.8l0,0c0.3-0.5,0.7-0.9,1.1-1.2
	c0.5-0.4,1.1-0.6,1.8-0.5c0.7,0,1.3,0.1,1.9,0.5c0.5,0.3,0.8,0.8,0.9,1.3c0.4-0.5,0.9-1,1.4-1.3c0.6-0.3,1.2-0.5,1.9-0.5
	c0.5,0,1,0.1,1.4,0.2s0.7,0.4,1,0.6c0.3,0.3,0.5,0.6,0.6,0.9c0.1,0.4,0.2,0.7,0.2,1.1c0,0.3,0,0.6-0.1,0.9l-1,5.8h-2.3l0.9-5.1
	c0-0.2,0-0.3,0.1-0.5c0-0.2,0-0.3,0-0.5s0-0.4-0.1-0.6c0-0.2-0.1-0.4-0.3-0.5c-0.1-0.2-0.3-0.3-0.5-0.4s-0.5-0.1-0.8-0.1
	s-0.7,0.1-1,0.2c-0.3,0.2-0.5,0.4-0.8,0.6c-0.2,0.2-0.4,0.5-0.5,0.8s-0.2,0.6-0.3,0.9l-0.9,5.1h-2.3l1-5.7c0-0.2,0.1-0.3,0.1-0.5
	c0-0.4-0.1-0.8-0.4-1.1c-0.3-0.3-0.7-0.5-1.1-0.4c-0.3,0-0.7,0.1-0.9,0.2c-0.3,0.1-0.5,0.3-0.7,0.6c-0.2,0.2-0.4,0.5-0.5,0.8
	s-0.2,0.6-0.3,0.9l-0.9,5.1h-2.3l1.3-7.4C270.2,73.8,270.2,73.6,270.3,73.2z"/>
<path d="M291.7,77.4c0,0.1,0,0.1,0,0.2c0,0.3,0.1,0.6,0.2,0.9s0.3,0.5,0.5,0.7s0.5,0.3,0.8,0.4s0.6,0.2,1,0.2c0.5,0,1.1-0.1,1.5-0.3
	c0.4-0.2,0.8-0.5,1.1-0.9l1.3,1.2c-1.1,1.2-2.6,1.9-4.2,1.9c-0.6,0-1.2-0.1-1.8-0.3c-0.5-0.2-1-0.5-1.4-0.8
	c-0.4-0.4-0.7-0.8-0.9-1.3c-0.2-0.6-0.3-1.2-0.3-1.8c0-0.8,0.1-1.5,0.4-2.3c0.3-0.7,0.6-1.3,1.1-1.8s1.1-0.9,1.7-1.2
	c0.7-0.3,1.4-0.4,2.2-0.4c0.5,0,1,0.1,1.6,0.2c0.5,0.1,0.9,0.4,1.2,0.7c0.4,0.3,0.6,0.7,0.8,1.2c0.2,0.5,0.3,1.1,0.3,1.6
	c0,0.2,0,0.5-0.1,0.9c0,0.4-0.1,0.7-0.2,1L291.7,77.4L291.7,77.4z M296.8,75.8c0-0.1,0-0.2,0-0.3c0-0.1,0-0.2,0-0.2
	c0-0.5-0.2-1-0.5-1.3c-0.4-0.4-1-0.6-1.5-0.5c-0.4,0-0.7,0.1-1.1,0.2c-0.3,0.1-0.6,0.3-0.8,0.6c-0.2,0.2-0.4,0.5-0.6,0.8
	c-0.1,0.2-0.2,0.5-0.3,0.8L296.8,75.8z"/>
<path d="M307.1,73.7c0.3-0.5,0.7-1,1.1-1.3c0.5-0.3,1-0.5,1.6-0.5c0.1,0,0.2,0,0.3,0c0.1,0,0.2,0,0.3,0l-0.3,2.1
	c-0.1,0-0.3-0.1-0.4-0.1s-0.2,0-0.3,0c-0.5,0-0.9,0.1-1.3,0.3c-0.3,0.2-0.6,0.4-0.8,0.7c-0.2,0.3-0.3,0.5-0.4,0.8
	c-0.1,0.2-0.1,0.5-0.2,0.7l-0.9,5h-2.3l1.3-7.4c0.1-0.2,0.1-0.6,0.2-1s0.1-0.7,0.1-1.1h2.1c0,0.1,0,0.2,0,0.3c0,0.1,0,0.3,0,0.4
	c0,0.2,0,0.3-0.1,0.5C307.1,73.3,307.1,73.6,307.1,73.7L307.1,73.7z"/>
<path d="M313.3,81.4l1.6-9.4h2.3l-1.7,9.4H313.3z M318,68.8c0,0.4-0.1,0.7-0.4,1s-0.6,0.4-1,0.4s-0.7-0.1-1-0.4s-0.4-0.6-0.4-1
	s0.1-0.8,0.4-1c0.3-0.3,0.6-0.4,1-0.4s0.7,0.1,0.9,0.4C317.9,68.2,318.1,68.4,318,68.8z"/>
<path d="M329.3,74.8c-0.2-0.3-0.5-0.6-0.8-0.7c-0.3-0.2-0.7-0.3-1.1-0.3c-0.5,0-0.9,0.1-1.3,0.3c-0.4,0.2-0.8,0.5-1.1,0.8
	c-0.6,0.7-0.9,1.6-0.9,2.6c0,0.3,0,0.6,0.1,0.9s0.2,0.6,0.4,0.8c0.2,0.2,0.5,0.4,0.7,0.5c0.3,0.1,0.7,0.2,1.1,0.2
	c0.5,0,1-0.1,1.4-0.3c0.4-0.2,0.7-0.5,1-0.8l1.3,1.3c-0.5,0.5-1.1,0.9-1.7,1.2c-0.7,0.3-1.4,0.4-2.2,0.4c-0.6,0-1.2-0.1-1.8-0.3
	c-0.5-0.2-1-0.5-1.4-0.8c-0.4-0.4-0.7-0.8-0.9-1.3c-0.2-0.5-0.3-1.1-0.3-1.7c0-0.7,0.1-1.5,0.4-2.2s0.7-1.3,1.2-1.9
	c0.5-0.5,1.1-1,1.8-1.3c0.7-0.3,1.5-0.5,2.3-0.5c0.7,0,1.4,0.1,2,0.4c0.6,0.2,1.1,0.7,1.5,1.2L329.3,74.8z"/>
<path d="M341,75.4c0-0.2,0-0.3,0-0.4s0-0.2,0-0.2c0-0.4-0.1-0.7-0.4-1c-0.4-0.2-0.8-0.3-1.3-0.3s-1,0.1-1.4,0.3
	c-0.5,0.2-0.9,0.4-1.3,0.7l-0.9-1.5c0.6-0.4,1.2-0.7,1.8-0.9c0.7-0.2,1.4-0.3,2.1-0.3c0.4,0,0.9,0,1.3,0.1s0.8,0.3,1.2,0.5
	c0.3,0.2,0.6,0.5,0.8,0.9c0.2,0.4,0.3,0.9,0.3,1.3c0,0.1,0,0.3,0,0.4c0,0.2,0,0.3-0.1,0.4l-0.7,3.8c-0.1,0.4-0.1,0.7-0.2,1.1
	c0,0.3-0.1,0.6-0.1,1H340c0-0.4,0-0.7,0.1-1.1l0,0c-0.8,0.9-1.9,1.4-3,1.3c-0.3,0-0.7,0-1-0.1s-0.7-0.2-1-0.4
	c-0.3-0.2-0.5-0.5-0.7-0.8c-0.2-0.4-0.3-0.8-0.3-1.2c0-0.7,0.2-1.3,0.6-1.9c0.4-0.5,1-0.9,1.6-1.1c0.7-0.3,1.4-0.5,2.2-0.5
	C339.4,75.6,340.2,75.4,341,75.4z M340.5,77.2c-0.4,0-0.9,0-1.4,0c-0.4,0-0.9,0.1-1.3,0.2s-0.7,0.3-1,0.5s-0.4,0.5-0.4,0.9
	c0,0.2,0,0.4,0.1,0.6c0.1,0.1,0.2,0.3,0.3,0.4c0.1,0.1,0.3,0.2,0.5,0.2s0.4,0.1,0.6,0.1c0.3,0,0.7-0.1,1-0.2s0.6-0.3,0.8-0.5
	c0.2-0.2,0.4-0.4,0.6-0.7c0.2-0.3,0.3-0.6,0.3-0.9l0.1-0.6H340.5z"/>
</svg>
